<?xml version="1.0" encoding="UTF-8"?><svg id="Rezet" xmlns="http://www.w3.org/2000/svg" viewBox="0 0 310.9 141.7"><defs><style>.cls-1{fill:#ed2936;}.cls-2{fill:#fff;}.cls-3{fill:#231f20;}</style></defs><path class="cls-3" d="m157.4,26.1v8.2h1.7c1.7,0,2.3,0,3.2-.1,1.1,0,4.6-.2,4.6-4,0-.6,0-2.5-2.1-3.5-1-.5-2.3-.6-5.2-.6h-2.2Zm-4.9-4.2h8.4c3.5,0,5.8,0,8.1,1.9,1.6,1.3,2.9,3.4,2.9,6.5,0,5-3.7,6.8-5.2,7.2l5.8,10.7h-5.6l-5.2-9.7h-4.4v9.7h-4.9v-26.3h.1Z"/><polygon class="cls-3" points="180.5 26.3 180.5 32.4 193.2 32.4 193.2 36.7 180.5 36.7 180.5 43.7 195.3 43.7 195.3 48.1 175.7 48.1 175.7 21.9 194.4 21.9 194.4 26.3 180.5 26.3"/><polygon class="cls-3" points="217.5 43.7 217.5 48.1 197 48.1 197 44.1 211.3 26.3 198.2 26.3 198.2 21.9 217.5 21.9 217.5 26.1 203.7 43.7 217.5 43.7"/><polygon class="cls-3" points="224.8 26.3 224.8 32.4 237.5 32.4 237.5 36.7 224.8 36.7 224.8 43.7 239.6 43.7 239.6 48.1 220 48.1 220 21.9 238.7 21.9 238.7 26.3 224.8 26.3"/><polygon class="cls-3" points="259.7 26.3 252.4 26.3 252.4 48.1 247.5 48.1 247.5 26.3 240.4 26.3 240.4 21.9 259.7 21.9 259.7 26.3"/><path class="cls-3" d="m154.5,74.3c.6,1,2.6,4,8.1,4,.9,0,1.9-.1,2.8-.4,1.9-.8,2.2-2.1,2.2-3,0-1.7-1.2-2.3-2-2.6-.6-.2-.7-.3-3-.8l-3.2-.7c-1.7-.4-2.5-.6-3.3-.9-1.2-.5-4.4-2.1-4.4-6.4,0-5,4.2-8.2,10.4-8.2,5.6,0,8.7,2.8,10.6,5.3l-4,3c-.9-1.3-2.6-3.9-6.8-3.9-2.6,0-4.9,1.2-4.9,3.2,0,2.2,2.5,2.7,4.8,3.1l2.7.6c3.5.7,8.5,2.2,8.5,7.8,0,6-5.6,8.4-11.1,8.4-1.4,0-3.1-.1-4.7-.6-1.7-.5-4.8-1.8-6.8-5l4.1-2.9Z"/><polygon class="cls-3" points="191.3 55.8 196.1 55.8 196.1 82.1 191.9 82.1 180.4 63.7 180.7 82.1 175.9 82.1 175.9 55.8 180.3 55.8 191.9 74.4 191.3 55.8"/><polygon class="cls-3" points="204.7 60.2 204.7 66.4 217.3 66.4 217.3 70.6 204.7 70.6 204.7 77.6 219.5 77.6 219.5 82.1 199.9 82.1 199.9 55.8 218.5 55.8 218.5 60.2 204.7 60.2"/><path class="cls-3" d="m235.8,72.7l-3.6-12.1-3.6,12.1h7.2Zm1.3,4.2h-9.8l-1.5,5.1h-5.2l8.8-26.2h5.6l9,26.2h-5.2l-1.7-5.1Z"/><polygon class="cls-3" points="258.2 65.7 267.4 82.1 261.8 82.1 254.8 69.7 250.6 74.6 250.6 82.1 245.7 82.1 245.7 55.8 250.6 55.8 250.6 67.9 261.1 55.8 266.9 55.8 258.2 65.7"/><polygon class="cls-3" points="273.8 60.2 273.8 66.4 286.4 66.4 286.4 70.6 273.8 70.6 273.8 77.6 288.5 77.6 288.5 82.1 268.9 82.1 268.9 55.8 287.6 55.8 287.6 60.2 273.8 60.2"/><path class="cls-3" d="m295.7,60.1v8.2h1.7c1.7,0,2.3,0,3.2-.1,1.1,0,4.6-.2,4.6-4,0-.6,0-2.5-2.1-3.5-1-.5-2.3-.6-5.2-.6h-2.2Zm-4.8-4.3h8.4c3.5,0,5.8,0,8.1,1.9,1.6,1.3,2.9,3.4,2.9,6.5,0,5-3.7,6.8-5.2,7.2l5.8,10.7h-5.6l-5.2-9.7h-4.4v9.7h-4.9v-26.3h.1Z"/><path class="cls-3" d="m154.5,108.2c.6,1,2.6,4,8.1,4,.9,0,1.9-.1,2.8-.4,1.9-.8,2.2-2.1,2.2-3,0-1.7-1.2-2.3-2-2.6-.6-.2-.7-.3-3-.8l-3.2-.7c-1.7-.4-2.5-.6-3.3-.9-1.2-.5-4.4-2.1-4.4-6.4,0-5,4.2-8.2,10.4-8.2,5.6,0,8.7,2.8,10.6,5.3l-4,3c-.9-1.3-2.6-3.9-6.8-3.9-2.6,0-4.9,1.2-4.9,3.2,0,2.2,2.5,2.7,4.8,3.1l2.7.6c3.5.7,8.5,2.2,8.5,7.8,0,6-5.6,8.4-11.1,8.4-1.4,0-3.1-.1-4.7-.6-1.7-.5-4.8-1.8-6.8-5l4.1-2.9Z"/><polygon class="cls-3" points="193.6 94.3 186.4 94.3 186.4 116 181.5 116 181.5 94.3 174.4 94.3 174.4 89.8 193.6 89.8 193.6 94.3"/><path class="cls-3" d="m205.7,93.6c-4.5,0-7.5,3.6-7.5,9.1,0,5.9,3.3,9.4,7.6,9.4,3.3,0,7.5-2.4,7.6-8.7.1-5.1-2.5-9.8-7.7-9.8m0,23.1c-3.3,0-6.4-.9-9-4-2.6-3-3.5-6.4-3.5-9.7,0-8,5.4-13.8,12.6-13.8,6.5,0,12.6,4.8,12.6,13.8-.1,7.4-4.7,13.7-12.7,13.7"/><path class="cls-3" d="m225.7,94v8.2h1.7c1.7,0,2.3,0,3.2-.1,1.1,0,4.6-.2,4.6-4.1,0-.6,0-2.5-2.1-3.5-1-.5-2.3-.6-5.2-.6h-2.2v.1Zm-4.9-4.2h8.4c3.5,0,5.8,0,8.1,1.9,1.6,1.3,2.9,3.4,2.9,6.5,0,5-3.7,6.8-5.2,7.2l5.8,10.7h-5.6l-5.2-9.7h-4.4v9.7h-4.9v-26.3h.1Z"/><polygon class="cls-3" points="247.4 94.2 247.4 100.4 260 100.4 260 104.6 247.4 104.6 247.4 111.6 262.1 111.6 262.1 116 242.5 116 242.5 89.8 261.2 89.8 261.2 94.2 247.4 94.2"/><path class="cls-3" d="m272.2,21.4v2.6h1.5c.3,0,1.4-.1,1.4-1.3,0-.2,0-.8-.6-1.1-.3-.2-.7-.2-1.6-.2h-.7Zm-1.5-1.3h2.6c1.1,0,1.8,0,2.5.6.5.4.9,1.1.9,2,0,1.5-1.1,2.1-1.6,2.2l1.8,3.3h-1.7l-1.6-3h-1.4v3h-1.5v-8.1h0Z"/><path class="cls-3" d="m273.4,17.6c-3.6,0-6.5,2.9-6.5,6.5s2.9,6.5,6.5,6.5,6.5-2.9,6.5-6.5-2.9-6.5-6.5-6.5m0,13.9c-4,0-7.3-3.3-7.3-7.3s3.3-7.3,7.3-7.3,7.3,3.3,7.3,7.3c0,4-3.3,7.3-7.3,7.3"/><rect class="cls-1" width="128.6" height="141.7"/><path class="cls-2" d="m90.8,107.3l-8.3,9.2-22.4-20v-14.6c11.2,0,20.4-9.1,20.4-20.4s-9.1-20.4-20.4-20.4c-5.7,0-11.3,2.4-15.1,6.7l-9.2-8.3c6.2-6.9,15.1-10.8,24.3-10.8,18.1,0,32.8,14.7,32.8,32.8,0,13.4-8.1,24.9-19.6,30l17.5,15.8Z"/></svg>